<?xml version="1.0" encoding="utf-8"?>
<!-- Generator: Adobe Illustrator 28.2.0, SVG Export Plug-In . SVG Version: 6.00 Build 0)  -->
<svg version="1.1" id="Layer_1" xmlns="http://www.w3.org/2000/svg" xmlns:xlink="http://www.w3.org/1999/xlink" x="0px" y="0px"
	 viewBox="0 0 180 180" style="enable-background:new 0 0 180 180;" xml:space="preserve">
<style type="text/css">
	.st0{fill:none;stroke:#000000;stroke-miterlimit:10;}
	.st1{opacity:0.85;}
	.st2{fill:#90BE6D;}
	.st3{opacity:0.8;fill:none;}
	.st4{opacity:0.64;}
	.st5{fill:#F94144;}
	.st6{opacity:0.41;}
	.st7{fill:#277DA1;}
</style>
<g>
	<path class="st0" d="M31.5,168.64"/>
	<g>
		<path d="M179,6.3V179H1V6.3H179 M180,5.3H0V180h180V5.3L180,5.3z"/>
	</g>
	<g>
		<path d="M90,6.3c49.07,0,89,38.74,89,86.35S139.07,179,90,179S1,140.26,1,92.65S40.93,6.3,90,6.3 M90,5.3
			C40.29,5.3,0,44.41,0,92.65S40.29,180,90,180s90-39.11,90-87.35S139.71,5.3,90,5.3L90,5.3z"/>
	</g>
	<line class="st0" x1="180" y1="92.65" x2="90" y2="92.65"/>
	<g>
		<path d="M90,7.48L178.36,179H1.64L90,7.48 M90,5.3L0,180h180L90,5.3L90,5.3z"/>
	</g>
	<g class="st1">
		<rect x="0" y="5.3" class="st2" width="180" height="174.7"/>
	</g>
	<line class="st3" x1="180" y1="92.65" x2="90" y2="92.65"/>
	<g class="st4">
		<ellipse class="st5" cx="90" cy="92.65" rx="90" ry="87.35"/>
	</g>
	<g class="st6">
		<polygon class="st7" points="0,180 90,5.3 180,180 		"/>
	</g>
	<g>
		<path d="M179,6.3V179H1V6.3H179 M180,5.3H0V180h180V5.3L180,5.3z"/>
	</g>
	<g>
		<path d="M90,6.3c49.07,0,89,38.74,89,86.35S139.07,179,90,179S1,140.26,1,92.65S40.93,6.3,90,6.3 M90,5.3
			C40.29,5.3,0,44.41,0,92.65S40.29,180,90,180s90-39.11,90-87.35S139.71,5.3,90,5.3L90,5.3z"/>
	</g>
	<line class="st0" x1="180" y1="92.65" x2="90" y2="92.65"/>
	<g>
		<path d="M90,7.48L178.36,179H1.64L90,7.48 M90,5.3L0,180h180L90,5.3L90,5.3z"/>
	</g>
	<path class="st0" d="M29.7-41"/>
</g>
<g>
</g>
<g>
</g>
<g>
</g>
<g>
</g>
<g>
</g>
<g>
</g>
<g>
</g>
<g>
</g>
<g>
</g>
<g>
</g>
<g>
</g>
<g>
</g>
<g>
</g>
<g>
</g>
<g>
</g>
</svg>
