<?xml version="1.0" encoding="utf-8"?>
<!-- Generator: Adobe Illustrator 28.2.0, SVG Export Plug-In . SVG Version: 6.00 Build 0)  -->
<svg version="1.1" id="Layer_1" xmlns="http://www.w3.org/2000/svg" xmlns:xlink="http://www.w3.org/1999/xlink" x="0px" y="0px"
	 viewBox="0 0 180 180" style="enable-background:new 0 0 180 180;" xml:space="preserve">
<style type="text/css">
	.st0{display:none;}
	.st1{display:inline;}
	.st2{display:inline;fill:none;stroke:#000000;stroke-miterlimit:10;}
	.st3{fill:none;}
	.st4{display:inline;opacity:0.8;fill:none;}
	.st5{fill:#FF1D25;}
	.st6{fill:#90BE6D;}
	.st7{opacity:0.8;fill:none;stroke:#F9C74F;stroke-miterlimit:10;}
	.st8{opacity:0.64;}
	.st9{fill:#F94144;}
	.st10{opacity:0.41;}
	.st11{fill:#277DA1;}
	.st12{fill:#FFFFFF;}
	.st13{fill:#FFFFFF;stroke:#FFFFFF;stroke-width:5;stroke-miterlimit:10;}
	.st14{fill:none;stroke:#000000;stroke-miterlimit:10;}
</style>
<g class="st0">
	<g class="st1">
		<path d="M179,1v178H1V1H179 M180,0H0v180h180V0L180,0z"/>
	</g>
	<g class="st1">
		<path d="M90,1c49.07,0,89,39.93,89,89s-39.93,89-89,89S1,139.07,1,90S40.93,1,90,1 M90,0C40.29,0,0,40.29,0,90s40.29,90,90,90
			s90-40.29,90-90S139.71,0,90,0L90,0z"/>
	</g>
	<line class="st2" x1="180" y1="90" x2="90" y2="90"/>
	<g class="st1">
		<path d="M90,2.24L178.38,179H1.62L90,2.24 M90,0L0,180h180L90,0L90,0z"/>
	</g>
	<g class="st1">
		<rect class="st3" width="180" height="180"/>
	</g>
	<line class="st4" x1="180" y1="90" x2="90" y2="90"/>
	<g class="st1">
		<path class="st5" d="M90,1c49.07,0,89,39.93,89,89s-39.93,89-89,89S1,139.07,1,90S40.93,1,90,1 M90,0C40.29,0,0,40.29,0,90
			s40.29,90,90,90s90-40.29,90-90S139.71,0,90,0L90,0z"/>
	</g>
	<g class="st1">
		<polygon class="st3" points="0,180 90,0 180,180 		"/>
	</g>
	<g class="st1">
		<path d="M179,1v178H1V1H179 M180,0H0v180h180V0L180,0z"/>
	</g>
	<g class="st1">
		<path d="M90,1c49.07,0,89,39.93,89,89s-39.93,89-89,89S1,139.07,1,90S40.93,1,90,1 M90,0C40.29,0,0,40.29,0,90s40.29,90,90,90
			s90-40.29,90-90S139.71,0,90,0L90,0z"/>
	</g>
	<line class="st2" x1="180" y1="90" x2="90" y2="90"/>
	<g class="st1">
		<path d="M90,2.24L178.38,179H1.62L90,2.24 M90,0L0,180h180L90,0L90,0z"/>
	</g>
</g>
<g>
	<g>
		<rect class="st6" width="180.07" height="180"/>
	</g>
	<line class="st7" x1="180.07" y1="90" x2="90.04" y2="90"/>
	<g id="Circle_00000139974702111018759700000017971827981474164407_" class="st8">
		<ellipse class="st9" cx="90.04" cy="90" rx="90.04" ry="90"/>
	</g>
	<g id="Triangle_00000011713312366669865470000008116623352753460651_" class="st10">
		<polygon class="st11" points="0,180 90.04,0 180.07,180 		"/>
	</g>
	<g id="H_00000022554406002305393660000005457036628219834552_">
		<g>
			<rect class="st12" width="5.4" height="180"/>
		</g>
		<g>
			<rect x="174.67" class="st12" width="5.4" height="180"/>
		</g>
	</g>
	<line id="_x2D__00000179642321380965400170000017646150553093764016_" class="st13" x1="180.07" y1="91.8" x2="90.04" y2="91.8"/>
	<g>
		<path class="st12" d="M174.48,95.4c-2.8,44.14-39.59,79.2-84.44,79.2C43.37,174.6,5.4,136.65,5.4,90S43.37,5.4,90.04,5.4
			c21.69,0,41.5,8.21,56.49,21.67l3.63-4.05C134.22,8.71,113.15,0,90.04,0C40.31,0,0,40.29,0,90c0,49.71,40.31,90,90.04,90
			c47.91,0,87.06-37.41,89.86-84.6H174.48z"/>
	</g>
	<path class="st14" d="M253,168.3"/>
	<g id="A_00000021837178600947928170000008716818393931223458_">
		<polygon class="st12" points="90.04,0 0,180 7.2,180 90.04,12.07 172.87,180 180.07,180 		"/>
	</g>
</g>
<g>
</g>
<g>
</g>
<g>
</g>
<g>
</g>
<g>
</g>
<g>
</g>
<g>
</g>
<g>
</g>
<g>
</g>
<g>
</g>
<g>
</g>
<g>
</g>
<g>
</g>
<g>
</g>
<g>
</g>
</svg>
